<mxfile host="app.diagrams.net" agent="Mozilla/5.0 (Windows NT 10.0; Win64; x64) AppleWebKit/537.36 (KHTML, like Gecko) Chrome/138.0.0.0 Safari/537.36" version="28.0.4">
  <diagram name="Page-1" id="k3tzlB8XghA4WyJ-DVOV">
    <mxGraphModel dx="3365" dy="1857" grid="1" gridSize="10" guides="1" tooltips="1" connect="1" arrows="1" fold="1" page="1" pageScale="1" pageWidth="850" pageHeight="1100" math="0" shadow="0">
      <root>
        <mxCell id="0" />
        <mxCell id="1" parent="0" />
        <mxCell id="zr7w39bFrzsVomgF9hFP-11" value="" style="rounded=1;whiteSpace=wrap;html=1;strokeColor=light-dark(#000000,#7F00FF);" vertex="1" parent="1">
          <mxGeometry x="-980" y="-251.26999999999998" width="500" height="300" as="geometry" />
        </mxCell>
        <mxCell id="dIE_9AlhpWobjz6JdOX3-5" value="" style="rounded=1;whiteSpace=wrap;html=1;rotation=45;strokeColor=light-dark(#000000,#FF0000);" parent="1" vertex="1">
          <mxGeometry x="-241.72" y="-251.27" width="767.05" height="492.43" as="geometry" />
        </mxCell>
        <mxCell id="dIE_9AlhpWobjz6JdOX3-2" value="" style="rounded=1;whiteSpace=wrap;html=1;strokeColor=light-dark(#000000,#3333FF);" parent="1" vertex="1">
          <mxGeometry x="332.5" y="-71.5" width="795" height="309" as="geometry" />
        </mxCell>
        <mxCell id="dIE_9AlhpWobjz6JdOX3-4" value="" style="rounded=1;whiteSpace=wrap;html=1;strokeColor=light-dark(#000000,#CCCC00);" parent="1" vertex="1">
          <mxGeometry x="340" y="10" width="170" height="780" as="geometry" />
        </mxCell>
        <mxCell id="dIE_9AlhpWobjz6JdOX3-3" value="" style="rounded=1;whiteSpace=wrap;html=1;strokeColor=light-dark(#000000,#00FF00);" parent="1" vertex="1">
          <mxGeometry x="350" y="-550" width="180" height="740" as="geometry" />
        </mxCell>
        <mxCell id="zQhMr7AfknGwRGQQnedS-1" value="Store" style="swimlane;fontStyle=0;childLayout=stackLayout;horizontal=1;startSize=26;fillColor=none;horizontalStack=0;resizeParent=1;resizeParentMax=0;resizeLast=0;collapsible=1;marginBottom=0;whiteSpace=wrap;html=1;" parent="1" vertex="1">
          <mxGeometry x="355" y="30" width="140" height="142" as="geometry" />
        </mxCell>
        <mxCell id="zQhMr7AfknGwRGQQnedS-2" value="- name: String" style="text;strokeColor=none;fillColor=none;align=left;verticalAlign=top;spacingLeft=4;spacingRight=4;overflow=hidden;rotatable=0;points=[[0,0.5],[1,0.5]];portConstraint=eastwest;whiteSpace=wrap;html=1;" parent="zQhMr7AfknGwRGQQnedS-1" vertex="1">
          <mxGeometry y="26" width="140" height="26" as="geometry" />
        </mxCell>
        <mxCell id="zQhMr7AfknGwRGQQnedS-3" value="- address: String" style="text;strokeColor=none;fillColor=none;align=left;verticalAlign=top;spacingLeft=4;spacingRight=4;overflow=hidden;rotatable=0;points=[[0,0.5],[1,0.5]];portConstraint=eastwest;whiteSpace=wrap;html=1;" parent="zQhMr7AfknGwRGQQnedS-1" vertex="1">
          <mxGeometry y="52" width="140" height="26" as="geometry" />
        </mxCell>
        <mxCell id="zQhMr7AfknGwRGQQnedS-4" value="- nb_requests: Number" style="text;strokeColor=none;fillColor=none;align=left;verticalAlign=top;spacingLeft=4;spacingRight=4;overflow=hidden;rotatable=0;points=[[0,0.5],[1,0.5]];portConstraint=eastwest;whiteSpace=wrap;html=1;" parent="zQhMr7AfknGwRGQQnedS-1" vertex="1">
          <mxGeometry y="78" width="140" height="32" as="geometry" />
        </mxCell>
        <mxCell id="6a12NX3yjwQNqYNZVY4e-1" value="- is_store: Boolean" style="text;strokeColor=none;fillColor=none;align=left;verticalAlign=top;spacingLeft=4;spacingRight=4;overflow=hidden;rotatable=0;points=[[0,0.5],[1,0.5]];portConstraint=eastwest;whiteSpace=wrap;html=1;" parent="zQhMr7AfknGwRGQQnedS-1" vertex="1">
          <mxGeometry y="110" width="140" height="32" as="geometry" />
        </mxCell>
        <mxCell id="zQhMr7AfknGwRGQQnedS-5" value="StoreInventory" style="swimlane;fontStyle=0;childLayout=stackLayout;horizontal=1;startSize=26;fillColor=none;horizontalStack=0;resizeParent=1;resizeParentMax=0;resizeLast=0;collapsible=1;marginBottom=0;whiteSpace=wrap;html=1;" parent="1" vertex="1">
          <mxGeometry x="30" y="60" width="140" height="160" as="geometry" />
        </mxCell>
        <mxCell id="zQhMr7AfknGwRGQQnedS-6" value="- name: String" style="text;strokeColor=none;fillColor=none;align=left;verticalAlign=top;spacingLeft=4;spacingRight=4;overflow=hidden;rotatable=0;points=[[0,0.5],[1,0.5]];portConstraint=eastwest;whiteSpace=wrap;html=1;" parent="zQhMr7AfknGwRGQQnedS-5" vertex="1">
          <mxGeometry y="26" width="140" height="26" as="geometry" />
        </mxCell>
        <mxCell id="zQhMr7AfknGwRGQQnedS-7" value="- description: String" style="text;strokeColor=none;fillColor=none;align=left;verticalAlign=top;spacingLeft=4;spacingRight=4;overflow=hidden;rotatable=0;points=[[0,0.5],[1,0.5]];portConstraint=eastwest;whiteSpace=wrap;html=1;" parent="zQhMr7AfknGwRGQQnedS-5" vertex="1">
          <mxGeometry y="52" width="140" height="26" as="geometry" />
        </mxCell>
        <mxCell id="zQhMr7AfknGwRGQQnedS-9" value="- qty: Number" style="text;strokeColor=none;fillColor=none;align=left;verticalAlign=top;spacingLeft=4;spacingRight=4;overflow=hidden;rotatable=0;points=[[0,0.5],[1,0.5]];portConstraint=eastwest;whiteSpace=wrap;html=1;" parent="zQhMr7AfknGwRGQQnedS-5" vertex="1">
          <mxGeometry y="78" width="140" height="26" as="geometry" />
        </mxCell>
        <mxCell id="zQhMr7AfknGwRGQQnedS-10" value="- max_qty: Number" style="text;strokeColor=none;fillColor=none;align=left;verticalAlign=top;spacingLeft=4;spacingRight=4;overflow=hidden;rotatable=0;points=[[0,0.5],[1,0.5]];portConstraint=eastwest;whiteSpace=wrap;html=1;" parent="zQhMr7AfknGwRGQQnedS-5" vertex="1">
          <mxGeometry y="104" width="140" height="26" as="geometry" />
        </mxCell>
        <mxCell id="zQhMr7AfknGwRGQQnedS-8" value="- price: Number" style="text;strokeColor=none;fillColor=none;align=left;verticalAlign=top;spacingLeft=4;spacingRight=4;overflow=hidden;rotatable=0;points=[[0,0.5],[1,0.5]];portConstraint=eastwest;whiteSpace=wrap;html=1;" parent="zQhMr7AfknGwRGQQnedS-5" vertex="1">
          <mxGeometry y="130" width="140" height="30" as="geometry" />
        </mxCell>
        <mxCell id="zQhMr7AfknGwRGQQnedS-11" value="ProductSold" style="swimlane;fontStyle=0;childLayout=stackLayout;horizontal=1;startSize=26;fillColor=none;horizontalStack=0;resizeParent=1;resizeParentMax=0;resizeLast=0;collapsible=1;marginBottom=0;whiteSpace=wrap;html=1;" parent="1" vertex="1">
          <mxGeometry x="350" y="490" width="140" height="160" as="geometry" />
        </mxCell>
        <mxCell id="zQhMr7AfknGwRGQQnedS-12" value="- name: String" style="text;strokeColor=none;fillColor=none;align=left;verticalAlign=top;spacingLeft=4;spacingRight=4;overflow=hidden;rotatable=0;points=[[0,0.5],[1,0.5]];portConstraint=eastwest;whiteSpace=wrap;html=1;" parent="zQhMr7AfknGwRGQQnedS-11" vertex="1">
          <mxGeometry y="26" width="140" height="26" as="geometry" />
        </mxCell>
        <mxCell id="zQhMr7AfknGwRGQQnedS-13" value="- description: String" style="text;strokeColor=none;fillColor=none;align=left;verticalAlign=top;spacingLeft=4;spacingRight=4;overflow=hidden;rotatable=0;points=[[0,0.5],[1,0.5]];portConstraint=eastwest;whiteSpace=wrap;html=1;" parent="zQhMr7AfknGwRGQQnedS-11" vertex="1">
          <mxGeometry y="52" width="140" height="26" as="geometry" />
        </mxCell>
        <mxCell id="zQhMr7AfknGwRGQQnedS-14" value="- qty: Number" style="text;strokeColor=none;fillColor=none;align=left;verticalAlign=top;spacingLeft=4;spacingRight=4;overflow=hidden;rotatable=0;points=[[0,0.5],[1,0.5]];portConstraint=eastwest;whiteSpace=wrap;html=1;" parent="zQhMr7AfknGwRGQQnedS-11" vertex="1">
          <mxGeometry y="78" width="140" height="26" as="geometry" />
        </mxCell>
        <mxCell id="zQhMr7AfknGwRGQQnedS-15" value="- total_price: Number" style="text;strokeColor=none;fillColor=none;align=left;verticalAlign=top;spacingLeft=4;spacingRight=4;overflow=hidden;rotatable=0;points=[[0,0.5],[1,0.5]];portConstraint=eastwest;whiteSpace=wrap;html=1;" parent="zQhMr7AfknGwRGQQnedS-11" vertex="1">
          <mxGeometry y="104" width="140" height="26" as="geometry" />
        </mxCell>
        <mxCell id="zQhMr7AfknGwRGQQnedS-16" value="- price: Number" style="text;strokeColor=none;fillColor=none;align=left;verticalAlign=top;spacingLeft=4;spacingRight=4;overflow=hidden;rotatable=0;points=[[0,0.5],[1,0.5]];portConstraint=eastwest;whiteSpace=wrap;html=1;" parent="zQhMr7AfknGwRGQQnedS-11" vertex="1">
          <mxGeometry y="130" width="140" height="30" as="geometry" />
        </mxCell>
        <mxCell id="zQhMr7AfknGwRGQQnedS-17" value="StoreSale" style="swimlane;fontStyle=0;childLayout=stackLayout;horizontal=1;startSize=26;fillColor=none;horizontalStack=0;resizeParent=1;resizeParentMax=0;resizeLast=0;collapsible=1;marginBottom=0;whiteSpace=wrap;html=1;" parent="1" vertex="1">
          <mxGeometry x="355" y="338" width="140" height="82" as="geometry" />
        </mxCell>
        <mxCell id="zQhMr7AfknGwRGQQnedS-21" value="- date: Date" style="text;strokeColor=none;fillColor=none;align=left;verticalAlign=top;spacingLeft=4;spacingRight=4;overflow=hidden;rotatable=0;points=[[0,0.5],[1,0.5]];portConstraint=eastwest;whiteSpace=wrap;html=1;" parent="zQhMr7AfknGwRGQQnedS-17" vertex="1">
          <mxGeometry y="26" width="140" height="26" as="geometry" />
        </mxCell>
        <mxCell id="zQhMr7AfknGwRGQQnedS-22" value="- total_price: Number" style="text;strokeColor=none;fillColor=none;align=left;verticalAlign=top;spacingLeft=4;spacingRight=4;overflow=hidden;rotatable=0;points=[[0,0.5],[1,0.5]];portConstraint=eastwest;whiteSpace=wrap;html=1;" parent="zQhMr7AfknGwRGQQnedS-17" vertex="1">
          <mxGeometry y="52" width="140" height="30" as="geometry" />
        </mxCell>
        <mxCell id="zQhMr7AfknGwRGQQnedS-27" value="SupplyRequest" style="swimlane;fontStyle=0;childLayout=stackLayout;horizontal=1;startSize=26;fillColor=none;horizontalStack=0;resizeParent=1;resizeParentMax=0;resizeLast=0;collapsible=1;marginBottom=0;whiteSpace=wrap;html=1;" parent="1" vertex="1">
          <mxGeometry x="660" y="60" width="140" height="82" as="geometry" />
        </mxCell>
        <mxCell id="zQhMr7AfknGwRGQQnedS-28" value="- request_date: Date" style="text;strokeColor=none;fillColor=none;align=left;verticalAlign=top;spacingLeft=4;spacingRight=4;overflow=hidden;rotatable=0;points=[[0,0.5],[1,0.5]];portConstraint=eastwest;whiteSpace=wrap;html=1;" parent="zQhMr7AfknGwRGQQnedS-27" vertex="1">
          <mxGeometry y="26" width="140" height="26" as="geometry" />
        </mxCell>
        <mxCell id="zQhMr7AfknGwRGQQnedS-29" value="- total_price: Number" style="text;strokeColor=none;fillColor=none;align=left;verticalAlign=top;spacingLeft=4;spacingRight=4;overflow=hidden;rotatable=0;points=[[0,0.5],[1,0.5]];portConstraint=eastwest;whiteSpace=wrap;html=1;" parent="zQhMr7AfknGwRGQQnedS-27" vertex="1">
          <mxGeometry y="52" width="140" height="30" as="geometry" />
        </mxCell>
        <mxCell id="zQhMr7AfknGwRGQQnedS-30" value="&lt;p style=&quot;margin:0px;margin-top:4px;text-align:center;&quot;&gt;&lt;i&gt;&amp;lt;&amp;lt;Enumeration&amp;gt;&amp;gt;&lt;/i&gt;&lt;br&gt;&lt;b&gt;status&lt;/b&gt;&lt;/p&gt;&lt;hr size=&quot;1&quot; style=&quot;border-style:solid;&quot;&gt;&lt;p style=&quot;margin:0px;margin-left:4px;&quot;&gt;&#39;pending&#39;&lt;/p&gt;&lt;p style=&quot;margin:0px;margin-left:4px;&quot;&gt;&#39;approved&#39;&lt;/p&gt;&lt;p style=&quot;margin:0px;margin-left:4px;&quot;&gt;&#39;rejected&#39;&lt;/p&gt;&lt;p style=&quot;margin:0px;margin-left:4px;&quot;&gt;&#39;fulfilled&#39;&lt;/p&gt;" style="verticalAlign=top;align=left;overflow=fill;html=1;whiteSpace=wrap;" parent="1" vertex="1">
          <mxGeometry x="910" y="-20" width="110" height="110" as="geometry" />
        </mxCell>
        <mxCell id="zQhMr7AfknGwRGQQnedS-31" value="ProductRequested" style="swimlane;fontStyle=0;childLayout=stackLayout;horizontal=1;startSize=26;fillColor=none;horizontalStack=0;resizeParent=1;resizeParentMax=0;resizeLast=0;collapsible=1;marginBottom=0;whiteSpace=wrap;html=1;" parent="1" vertex="1">
          <mxGeometry x="900" y="148" width="140" height="78" as="geometry" />
        </mxCell>
        <mxCell id="zQhMr7AfknGwRGQQnedS-32" value="- name: String" style="text;strokeColor=none;fillColor=none;align=left;verticalAlign=top;spacingLeft=4;spacingRight=4;overflow=hidden;rotatable=0;points=[[0,0.5],[1,0.5]];portConstraint=eastwest;whiteSpace=wrap;html=1;" parent="zQhMr7AfknGwRGQQnedS-31" vertex="1">
          <mxGeometry y="26" width="140" height="26" as="geometry" />
        </mxCell>
        <mxCell id="zQhMr7AfknGwRGQQnedS-34" value="- qty: Number" style="text;strokeColor=none;fillColor=none;align=left;verticalAlign=top;spacingLeft=4;spacingRight=4;overflow=hidden;rotatable=0;points=[[0,0.5],[1,0.5]];portConstraint=eastwest;whiteSpace=wrap;html=1;" parent="zQhMr7AfknGwRGQQnedS-31" vertex="1">
          <mxGeometry y="52" width="140" height="26" as="geometry" />
        </mxCell>
        <mxCell id="zQhMr7AfknGwRGQQnedS-43" value="" style="endArrow=open;endFill=1;endSize=12;html=1;rounded=0;exitX=1;exitY=0.25;exitDx=0;exitDy=0;entryX=0;entryY=0.5;entryDx=0;entryDy=0;" parent="1" source="zQhMr7AfknGwRGQQnedS-27" target="zQhMr7AfknGwRGQQnedS-30" edge="1">
          <mxGeometry width="160" relative="1" as="geometry">
            <mxPoint x="510" y="650" as="sourcePoint" />
            <mxPoint x="780" y="380" as="targetPoint" />
          </mxGeometry>
        </mxCell>
        <mxCell id="zQhMr7AfknGwRGQQnedS-44" value="" style="endArrow=diamondThin;endFill=1;endSize=24;html=1;rounded=0;entryX=1;entryY=0.5;entryDx=0;entryDy=0;exitX=0.5;exitY=0;exitDx=0;exitDy=0;" parent="1" source="zQhMr7AfknGwRGQQnedS-31" target="zQhMr7AfknGwRGQQnedS-29" edge="1">
          <mxGeometry width="160" relative="1" as="geometry">
            <mxPoint x="570" y="590" as="sourcePoint" />
            <mxPoint x="730" y="590" as="targetPoint" />
          </mxGeometry>
        </mxCell>
        <mxCell id="zQhMr7AfknGwRGQQnedS-45" value="" style="endArrow=diamondThin;endFill=1;endSize=24;html=1;rounded=0;entryX=0.521;entryY=1.033;entryDx=0;entryDy=0;entryPerimeter=0;exitX=0.5;exitY=0;exitDx=0;exitDy=0;" parent="1" source="zQhMr7AfknGwRGQQnedS-11" target="zQhMr7AfknGwRGQQnedS-22" edge="1">
          <mxGeometry width="160" relative="1" as="geometry">
            <mxPoint x="170" y="550" as="sourcePoint" />
            <mxPoint x="330" y="550" as="targetPoint" />
          </mxGeometry>
        </mxCell>
        <mxCell id="zQhMr7AfknGwRGQQnedS-46" value="1" style="text;html=1;align=center;verticalAlign=middle;resizable=0;points=[];autosize=1;strokeColor=none;fillColor=none;" parent="1" vertex="1">
          <mxGeometry x="435" y="420" width="30" height="30" as="geometry" />
        </mxCell>
        <mxCell id="zQhMr7AfknGwRGQQnedS-47" value="1..*" style="text;html=1;align=center;verticalAlign=middle;resizable=0;points=[];autosize=1;strokeColor=none;fillColor=none;" parent="1" vertex="1">
          <mxGeometry x="425" y="460" width="40" height="30" as="geometry" />
        </mxCell>
        <mxCell id="zQhMr7AfknGwRGQQnedS-48" value="1" style="text;html=1;align=center;verticalAlign=middle;resizable=0;points=[];autosize=1;strokeColor=none;fillColor=none;" parent="1" vertex="1">
          <mxGeometry x="800" y="98" width="30" height="30" as="geometry" />
        </mxCell>
        <mxCell id="zQhMr7AfknGwRGQQnedS-49" value="1..*" style="text;html=1;align=center;verticalAlign=middle;resizable=0;points=[];autosize=1;strokeColor=none;fillColor=none;" parent="1" vertex="1">
          <mxGeometry x="950" y="172" width="40" height="30" as="geometry" />
        </mxCell>
        <mxCell id="zQhMr7AfknGwRGQQnedS-51" value="" style="endArrow=none;html=1;rounded=0;entryX=0;entryY=0.5;entryDx=0;entryDy=0;exitX=1;exitY=0.5;exitDx=0;exitDy=0;" parent="1" source="zQhMr7AfknGwRGQQnedS-9" target="zQhMr7AfknGwRGQQnedS-3" edge="1">
          <mxGeometry width="50" height="50" relative="1" as="geometry">
            <mxPoint x="150" y="270" as="sourcePoint" />
            <mxPoint x="200" y="220" as="targetPoint" />
          </mxGeometry>
        </mxCell>
        <mxCell id="zQhMr7AfknGwRGQQnedS-52" value="" style="endArrow=none;html=1;rounded=0;entryX=0.5;entryY=0.938;entryDx=0;entryDy=0;entryPerimeter=0;exitX=0.5;exitY=0;exitDx=0;exitDy=0;" parent="1" source="zQhMr7AfknGwRGQQnedS-17" target="6a12NX3yjwQNqYNZVY4e-1" edge="1">
          <mxGeometry width="50" height="50" relative="1" as="geometry">
            <mxPoint x="300" y="290" as="sourcePoint" />
            <mxPoint x="350" y="240" as="targetPoint" />
          </mxGeometry>
        </mxCell>
        <mxCell id="zQhMr7AfknGwRGQQnedS-53" value="" style="endArrow=none;html=1;rounded=0;entryX=1;entryY=0.5;entryDx=0;entryDy=0;exitX=0;exitY=0.5;exitDx=0;exitDy=0;" parent="1" source="zQhMr7AfknGwRGQQnedS-28" target="zQhMr7AfknGwRGQQnedS-3" edge="1">
          <mxGeometry width="50" height="50" relative="1" as="geometry">
            <mxPoint x="90" y="550" as="sourcePoint" />
            <mxPoint x="140" y="500" as="targetPoint" />
          </mxGeometry>
        </mxCell>
        <mxCell id="zQhMr7AfknGwRGQQnedS-54" value="1" style="text;html=1;align=center;verticalAlign=middle;resizable=0;points=[];autosize=1;strokeColor=none;fillColor=none;" parent="1" vertex="1">
          <mxGeometry x="315" y="108" width="30" height="30" as="geometry" />
        </mxCell>
        <mxCell id="zQhMr7AfknGwRGQQnedS-55" value="1" style="text;html=1;align=center;verticalAlign=middle;resizable=0;points=[];autosize=1;strokeColor=none;fillColor=none;" parent="1" vertex="1">
          <mxGeometry x="495" y="98" width="30" height="30" as="geometry" />
        </mxCell>
        <mxCell id="zQhMr7AfknGwRGQQnedS-56" value="1" style="text;html=1;align=center;verticalAlign=middle;resizable=0;points=[];autosize=1;strokeColor=none;fillColor=none;" parent="1" vertex="1">
          <mxGeometry x="425" y="190" width="30" height="30" as="geometry" />
        </mxCell>
        <mxCell id="zQhMr7AfknGwRGQQnedS-57" value="1" style="text;html=1;align=center;verticalAlign=middle;resizable=0;points=[];autosize=1;strokeColor=none;fillColor=none;" parent="1" vertex="1">
          <mxGeometry x="170" y="125" width="30" height="30" as="geometry" />
        </mxCell>
        <mxCell id="zQhMr7AfknGwRGQQnedS-58" value="0..*" style="text;html=1;align=center;verticalAlign=middle;resizable=0;points=[];autosize=1;strokeColor=none;fillColor=none;" parent="1" vertex="1">
          <mxGeometry x="425" y="300" width="40" height="30" as="geometry" />
        </mxCell>
        <mxCell id="zQhMr7AfknGwRGQQnedS-59" value="0..*" style="text;html=1;align=center;verticalAlign=middle;resizable=0;points=[];autosize=1;strokeColor=none;fillColor=none;" parent="1" vertex="1">
          <mxGeometry x="630" y="78" width="40" height="30" as="geometry" />
        </mxCell>
        <mxCell id="zQhMr7AfknGwRGQQnedS-60" value="&amp;lt; Contient" style="text;html=1;align=center;verticalAlign=middle;whiteSpace=wrap;rounded=0;" parent="1" vertex="1">
          <mxGeometry x="250" y="125" width="60" height="30" as="geometry" />
        </mxCell>
        <mxCell id="zQhMr7AfknGwRGQQnedS-62" value="Regroupe &amp;gt;" style="text;html=1;align=center;verticalAlign=middle;resizable=0;points=[];autosize=1;strokeColor=none;fillColor=none;" parent="1" vertex="1">
          <mxGeometry x="540" y="68" width="90" height="30" as="geometry" />
        </mxCell>
        <mxCell id="6a12NX3yjwQNqYNZVY4e-3" value="1" style="text;html=1;align=center;verticalAlign=middle;resizable=0;points=[];autosize=1;strokeColor=none;fillColor=none;" parent="1" vertex="1">
          <mxGeometry x="110" y="220" width="30" height="30" as="geometry" />
        </mxCell>
        <mxCell id="6a12NX3yjwQNqYNZVY4e-4" value="1..*" style="text;html=1;align=center;verticalAlign=middle;resizable=0;points=[];autosize=1;strokeColor=none;fillColor=none;" parent="1" vertex="1">
          <mxGeometry x="305" y="450" width="40" height="30" as="geometry" />
        </mxCell>
        <mxCell id="6a12NX3yjwQNqYNZVY4e-5" value="Transfert de produits" style="text;html=1;align=center;verticalAlign=middle;resizable=0;points=[];autosize=1;strokeColor=none;fillColor=none;" parent="1" vertex="1">
          <mxGeometry x="185" y="310" width="130" height="30" as="geometry" />
        </mxCell>
        <mxCell id="6a12NX3yjwQNqYNZVY4e-6" value="Entre StoreInventory et ProductSold il y a un lien logique dans lequel les quantités de produits sont mise à jours selon la situation: Si c&#39;est une nouvelle vente, le stock de la vente est transferée dans ProductSold. Si c&#39;est un retour de vente, les instances de ProductSold sont supprimées de la vente et leurs produits sont remis dans l&#39;inventaire du magasin." style="shape=note;whiteSpace=wrap;html=1;backgroundOutline=1;darkOpacity=0.05;" parent="1" vertex="1">
          <mxGeometry x="540" y="437" width="220" height="227" as="geometry" />
        </mxCell>
        <mxCell id="g2D_Cmm5QyLG8SQXhBRO-1" value="User" style="swimlane;fontStyle=0;childLayout=stackLayout;horizontal=1;startSize=26;fillColor=none;horizontalStack=0;resizeParent=1;resizeParentMax=0;resizeLast=0;collapsible=1;marginBottom=0;whiteSpace=wrap;html=1;" parent="1" vertex="1">
          <mxGeometry x="359" y="-213" width="140" height="78" as="geometry" />
        </mxCell>
        <mxCell id="g2D_Cmm5QyLG8SQXhBRO-2" value="- username: String" style="text;strokeColor=none;fillColor=none;align=left;verticalAlign=top;spacingLeft=4;spacingRight=4;overflow=hidden;rotatable=0;points=[[0,0.5],[1,0.5]];portConstraint=eastwest;whiteSpace=wrap;html=1;" parent="g2D_Cmm5QyLG8SQXhBRO-1" vertex="1">
          <mxGeometry y="26" width="140" height="26" as="geometry" />
        </mxCell>
        <mxCell id="g2D_Cmm5QyLG8SQXhBRO-3" value="- password: String" style="text;strokeColor=none;fillColor=none;align=left;verticalAlign=top;spacingLeft=4;spacingRight=4;overflow=hidden;rotatable=0;points=[[0,0.5],[1,0.5]];portConstraint=eastwest;whiteSpace=wrap;html=1;" parent="g2D_Cmm5QyLG8SQXhBRO-1" vertex="1">
          <mxGeometry y="52" width="140" height="26" as="geometry" />
        </mxCell>
        <mxCell id="g2D_Cmm5QyLG8SQXhBRO-7" value="" style="endArrow=diamondThin;endFill=0;endSize=24;html=1;rounded=0;entryX=0.479;entryY=1;entryDx=0;entryDy=0;entryPerimeter=0;exitX=0.5;exitY=0;exitDx=0;exitDy=0;" parent="1" source="zQhMr7AfknGwRGQQnedS-1" target="g2D_Cmm5QyLG8SQXhBRO-3" edge="1">
          <mxGeometry width="160" relative="1" as="geometry">
            <mxPoint x="270" y="-70" as="sourcePoint" />
            <mxPoint x="423.03999999999996" y="-103.00999999999999" as="targetPoint" />
          </mxGeometry>
        </mxCell>
        <mxCell id="g2D_Cmm5QyLG8SQXhBRO-8" value="1" style="text;html=1;align=center;verticalAlign=middle;resizable=0;points=[];autosize=1;strokeColor=none;fillColor=none;" parent="1" vertex="1">
          <mxGeometry x="430" y="-106" width="30" height="30" as="geometry" />
        </mxCell>
        <mxCell id="g2D_Cmm5QyLG8SQXhBRO-9" value="1..*" style="text;html=1;align=center;verticalAlign=middle;resizable=0;points=[];autosize=1;strokeColor=none;fillColor=none;" parent="1" vertex="1">
          <mxGeometry x="430" y="-2" width="40" height="30" as="geometry" />
        </mxCell>
        <mxCell id="g2D_Cmm5QyLG8SQXhBRO-10" value="gère&lt;div&gt;V&lt;/div&gt;" style="text;html=1;align=center;verticalAlign=middle;resizable=0;points=[];autosize=1;strokeColor=none;fillColor=none;" parent="1" vertex="1">
          <mxGeometry x="425" y="-50" width="50" height="40" as="geometry" />
        </mxCell>
        <mxCell id="70goZkKCn1Ls-VjYRvwM-1" value="&lt;p style=&quot;margin:0px;margin-top:4px;text-align:center;&quot;&gt;&lt;i&gt;&amp;lt;&amp;lt;Enumeration&amp;gt;&amp;gt;&lt;/i&gt;&lt;br&gt;&lt;b&gt;type&lt;/b&gt;&lt;/p&gt;&lt;hr size=&quot;1&quot; style=&quot;border-style:solid;&quot;&gt;&lt;p style=&quot;margin:0px;margin-left:4px;&quot;&gt;&#39;admin&#39;&lt;/p&gt;&lt;p style=&quot;margin:0px;margin-left:4px;&quot;&gt;&#39;seller&#39;&lt;/p&gt;&lt;p style=&quot;margin:0px;margin-left:4px;&quot;&gt;&#39;buyer&#39;&lt;/p&gt;" style="verticalAlign=top;align=left;overflow=fill;html=1;whiteSpace=wrap;" parent="1" vertex="1">
          <mxGeometry x="374" y="-430" width="110" height="110" as="geometry" />
        </mxCell>
        <mxCell id="70goZkKCn1Ls-VjYRvwM-2" value="" style="endArrow=open;endFill=1;endSize=12;html=1;rounded=0;exitX=0.5;exitY=0;exitDx=0;exitDy=0;entryX=0.5;entryY=1;entryDx=0;entryDy=0;" parent="1" source="g2D_Cmm5QyLG8SQXhBRO-1" target="70goZkKCn1Ls-VjYRvwM-1" edge="1">
          <mxGeometry width="160" relative="1" as="geometry">
            <mxPoint x="541" y="-190" as="sourcePoint" />
            <mxPoint x="540" y="-64" as="targetPoint" />
          </mxGeometry>
        </mxCell>
        <mxCell id="70goZkKCn1Ls-VjYRvwM-3" value="Cart" style="swimlane;fontStyle=0;childLayout=stackLayout;horizontal=1;startSize=26;fillColor=none;horizontalStack=0;resizeParent=1;resizeParentMax=0;resizeLast=0;collapsible=1;marginBottom=0;whiteSpace=wrap;html=1;" parent="1" vertex="1">
          <mxGeometry x="95" y="-213" width="140" height="52" as="geometry" />
        </mxCell>
        <mxCell id="70goZkKCn1Ls-VjYRvwM-4" value="- total_price: Number" style="text;strokeColor=none;fillColor=none;align=left;verticalAlign=top;spacingLeft=4;spacingRight=4;overflow=hidden;rotatable=0;points=[[0,0.5],[1,0.5]];portConstraint=eastwest;whiteSpace=wrap;html=1;" parent="70goZkKCn1Ls-VjYRvwM-3" vertex="1">
          <mxGeometry y="26" width="140" height="26" as="geometry" />
        </mxCell>
        <mxCell id="70goZkKCn1Ls-VjYRvwM-6" value="ProductCart" style="swimlane;fontStyle=0;childLayout=stackLayout;horizontal=1;startSize=26;fillColor=none;horizontalStack=0;resizeParent=1;resizeParentMax=0;resizeLast=0;collapsible=1;marginBottom=0;whiteSpace=wrap;html=1;" parent="1" vertex="1">
          <mxGeometry x="-160" y="-238" width="140" height="160" as="geometry" />
        </mxCell>
        <mxCell id="70goZkKCn1Ls-VjYRvwM-7" value="- name: String" style="text;strokeColor=none;fillColor=none;align=left;verticalAlign=top;spacingLeft=4;spacingRight=4;overflow=hidden;rotatable=0;points=[[0,0.5],[1,0.5]];portConstraint=eastwest;whiteSpace=wrap;html=1;" parent="70goZkKCn1Ls-VjYRvwM-6" vertex="1">
          <mxGeometry y="26" width="140" height="26" as="geometry" />
        </mxCell>
        <mxCell id="70goZkKCn1Ls-VjYRvwM-8" value="- description: String" style="text;strokeColor=none;fillColor=none;align=left;verticalAlign=top;spacingLeft=4;spacingRight=4;overflow=hidden;rotatable=0;points=[[0,0.5],[1,0.5]];portConstraint=eastwest;whiteSpace=wrap;html=1;" parent="70goZkKCn1Ls-VjYRvwM-6" vertex="1">
          <mxGeometry y="52" width="140" height="26" as="geometry" />
        </mxCell>
        <mxCell id="70goZkKCn1Ls-VjYRvwM-9" value="- qty: Number" style="text;strokeColor=none;fillColor=none;align=left;verticalAlign=top;spacingLeft=4;spacingRight=4;overflow=hidden;rotatable=0;points=[[0,0.5],[1,0.5]];portConstraint=eastwest;whiteSpace=wrap;html=1;" parent="70goZkKCn1Ls-VjYRvwM-6" vertex="1">
          <mxGeometry y="78" width="140" height="26" as="geometry" />
        </mxCell>
        <mxCell id="70goZkKCn1Ls-VjYRvwM-10" value="- total_price: Number" style="text;strokeColor=none;fillColor=none;align=left;verticalAlign=top;spacingLeft=4;spacingRight=4;overflow=hidden;rotatable=0;points=[[0,0.5],[1,0.5]];portConstraint=eastwest;whiteSpace=wrap;html=1;" parent="70goZkKCn1Ls-VjYRvwM-6" vertex="1">
          <mxGeometry y="104" width="140" height="26" as="geometry" />
        </mxCell>
        <mxCell id="70goZkKCn1Ls-VjYRvwM-11" value="- price: Number" style="text;strokeColor=none;fillColor=none;align=left;verticalAlign=top;spacingLeft=4;spacingRight=4;overflow=hidden;rotatable=0;points=[[0,0.5],[1,0.5]];portConstraint=eastwest;whiteSpace=wrap;html=1;" parent="70goZkKCn1Ls-VjYRvwM-6" vertex="1">
          <mxGeometry y="130" width="140" height="30" as="geometry" />
        </mxCell>
        <mxCell id="70goZkKCn1Ls-VjYRvwM-12" value="" style="endArrow=none;html=1;rounded=0;entryX=0.507;entryY=1.154;entryDx=0;entryDy=0;entryPerimeter=0;exitX=0.5;exitY=0;exitDx=0;exitDy=0;" parent="1" source="zQhMr7AfknGwRGQQnedS-5" target="70goZkKCn1Ls-VjYRvwM-4" edge="1">
          <mxGeometry width="50" height="50" relative="1" as="geometry">
            <mxPoint x="305" y="122" as="sourcePoint" />
            <mxPoint x="45" y="-182" as="targetPoint" />
          </mxGeometry>
        </mxCell>
        <mxCell id="70goZkKCn1Ls-VjYRvwM-14" value="" style="endArrow=diamondThin;endFill=1;endSize=24;html=1;rounded=0;entryX=0;entryY=0.5;entryDx=0;entryDy=0;exitX=0.993;exitY=-0.077;exitDx=0;exitDy=0;exitPerimeter=0;" parent="1" source="70goZkKCn1Ls-VjYRvwM-4" target="g2D_Cmm5QyLG8SQXhBRO-2" edge="1">
          <mxGeometry width="160" relative="1" as="geometry">
            <mxPoint x="248.5" y="-58" as="sourcePoint" />
            <mxPoint x="251.5" y="-135" as="targetPoint" />
          </mxGeometry>
        </mxCell>
        <mxCell id="70goZkKCn1Ls-VjYRvwM-15" value="1" style="text;html=1;align=center;verticalAlign=middle;resizable=0;points=[];autosize=1;strokeColor=none;fillColor=none;fontSize=16;" parent="1" vertex="1">
          <mxGeometry x="229" y="-220" width="30" height="30" as="geometry" />
        </mxCell>
        <mxCell id="70goZkKCn1Ls-VjYRvwM-16" value="1" style="text;html=1;align=center;verticalAlign=middle;resizable=0;points=[];autosize=1;strokeColor=none;fillColor=none;fontSize=16;" parent="1" vertex="1">
          <mxGeometry x="329" y="-209" width="30" height="30" as="geometry" />
        </mxCell>
        <mxCell id="70goZkKCn1Ls-VjYRvwM-17" value="possède" style="text;html=1;align=center;verticalAlign=middle;resizable=0;points=[];autosize=1;strokeColor=none;fillColor=none;fontSize=16;" parent="1" vertex="1">
          <mxGeometry x="250" y="-213" width="80" height="30" as="geometry" />
        </mxCell>
        <mxCell id="70goZkKCn1Ls-VjYRvwM-18" value="" style="endArrow=diamondThin;endFill=1;endSize=24;html=1;rounded=0;entryX=0.007;entryY=-0.077;entryDx=0;entryDy=0;exitX=1;exitY=0.5;exitDx=0;exitDy=0;entryPerimeter=0;" parent="1" source="70goZkKCn1Ls-VjYRvwM-9" target="70goZkKCn1Ls-VjYRvwM-4" edge="1">
          <mxGeometry width="160" relative="1" as="geometry">
            <mxPoint x="-30" y="-161" as="sourcePoint" />
            <mxPoint x="95" y="-146" as="targetPoint" />
          </mxGeometry>
        </mxCell>
        <mxCell id="70goZkKCn1Ls-VjYRvwM-19" value="1" style="text;html=1;align=center;verticalAlign=middle;resizable=0;points=[];autosize=1;strokeColor=none;fillColor=none;fontSize=16;" parent="1" vertex="1">
          <mxGeometry x="69" y="-219" width="30" height="30" as="geometry" />
        </mxCell>
        <mxCell id="70goZkKCn1Ls-VjYRvwM-20" value="0..*" style="text;html=1;align=center;verticalAlign=middle;resizable=0;points=[];autosize=1;strokeColor=none;fillColor=none;fontSize=16;" parent="1" vertex="1">
          <mxGeometry x="-31" y="-179" width="50" height="30" as="geometry" />
        </mxCell>
        <mxCell id="70goZkKCn1Ls-VjYRvwM-21" value="contient" style="text;html=1;align=center;verticalAlign=middle;resizable=0;points=[];autosize=1;strokeColor=none;fillColor=none;fontSize=16;" parent="1" vertex="1">
          <mxGeometry y="-202" width="80" height="30" as="geometry" />
        </mxCell>
        <mxCell id="70goZkKCn1Ls-VjYRvwM-23" value="utilisée pour enregistrer une commande" style="text;html=1;align=center;verticalAlign=middle;resizable=0;points=[];autosize=1;strokeColor=none;fillColor=none;fontSize=16;rotation=75;" parent="1" vertex="1">
          <mxGeometry x="105" y="-20.060000000000002" width="310" height="30" as="geometry" />
        </mxCell>
        <mxCell id="zQhMr7AfknGwRGQQnedS-61" value="enregistre&lt;br&gt;V" style="text;html=1;align=center;verticalAlign=middle;resizable=0;points=[];autosize=1;strokeColor=none;fillColor=none;" parent="1" vertex="1">
          <mxGeometry x="415" y="237.5" width="80" height="40" as="geometry" />
        </mxCell>
        <mxCell id="dIE_9AlhpWobjz6JdOX3-7" value="&lt;font style=&quot;font-size: 48px;&quot;&gt;Stocks&lt;/font&gt;" style="text;html=1;align=center;verticalAlign=middle;resizable=1;points=[];autosize=0;strokeColor=none;fillColor=none;" parent="1" vertex="1">
          <mxGeometry x="-45" y="-340" width="170" height="82" as="geometry" />
        </mxCell>
        <mxCell id="dIE_9AlhpWobjz6JdOX3-8" value="&lt;font style=&quot;font-size: 48px;&quot;&gt;Auth&lt;/font&gt;" style="text;html=1;align=center;verticalAlign=middle;resizable=1;points=[];autosize=0;strokeColor=none;fillColor=none;" parent="1" vertex="1">
          <mxGeometry x="350" y="-530" width="170" height="82" as="geometry" />
        </mxCell>
        <mxCell id="dIE_9AlhpWobjz6JdOX3-9" value="&lt;font style=&quot;font-size: 48px;&quot;&gt;Supplies&lt;/font&gt;" style="text;html=1;align=center;verticalAlign=middle;resizable=1;points=[];autosize=0;strokeColor=none;fillColor=none;" parent="1" vertex="1">
          <mxGeometry x="670" y="-46.06" width="170" height="82" as="geometry" />
        </mxCell>
        <mxCell id="dIE_9AlhpWobjz6JdOX3-10" value="&lt;font style=&quot;font-size: 48px;&quot;&gt;Sales&lt;/font&gt;" style="text;html=1;align=center;verticalAlign=middle;resizable=1;points=[];autosize=0;strokeColor=none;fillColor=none;" parent="1" vertex="1">
          <mxGeometry x="329" y="670" width="170" height="82" as="geometry" />
        </mxCell>
        <mxCell id="zr7w39bFrzsVomgF9hFP-1" value="" style="endArrow=none;dashed=1;html=1;dashPattern=1 3;strokeWidth=2;rounded=0;strokeColor=default;align=center;verticalAlign=middle;fontFamily=Helvetica;fontSize=12;fontColor=default;labelBackgroundColor=default;startSize=8;endSize=8;curved=1;exitX=0;exitY=0.5;exitDx=0;exitDy=0;" edge="1" parent="1" source="zQhMr7AfknGwRGQQnedS-14" target="zQhMr7AfknGwRGQQnedS-8">
          <mxGeometry width="50" height="50" relative="1" as="geometry">
            <mxPoint x="-160" y="360" as="sourcePoint" />
            <mxPoint x="-110" y="310" as="targetPoint" />
          </mxGeometry>
        </mxCell>
        <mxCell id="zr7w39bFrzsVomgF9hFP-2" value="" style="endArrow=none;dashed=1;html=1;dashPattern=1 3;strokeWidth=2;rounded=0;strokeColor=default;align=center;verticalAlign=middle;fontFamily=Helvetica;fontSize=12;fontColor=default;labelBackgroundColor=default;startSize=8;endSize=8;curved=1;entryX=0.714;entryY=1;entryDx=0;entryDy=0;entryPerimeter=0;exitX=0;exitY=0.5;exitDx=0;exitDy=0;" edge="1" parent="1" source="zQhMr7AfknGwRGQQnedS-21" target="70goZkKCn1Ls-VjYRvwM-4">
          <mxGeometry width="50" height="50" relative="1" as="geometry">
            <mxPoint x="-380" y="170" as="sourcePoint" />
            <mxPoint x="-330" y="120" as="targetPoint" />
          </mxGeometry>
        </mxCell>
        <mxCell id="zr7w39bFrzsVomgF9hFP-3" value="Event" style="swimlane;fontStyle=0;childLayout=stackLayout;horizontal=1;startSize=26;fillColor=none;horizontalStack=0;resizeParent=1;resizeParentMax=0;resizeLast=0;collapsible=1;marginBottom=0;whiteSpace=wrap;html=1;" vertex="1" parent="1">
          <mxGeometry x="-650" y="-145.26999999999998" width="140" height="104" as="geometry" />
        </mxCell>
        <mxCell id="zr7w39bFrzsVomgF9hFP-4" value="- name: String" style="text;strokeColor=none;fillColor=none;align=left;verticalAlign=top;spacingLeft=4;spacingRight=4;overflow=hidden;rotatable=0;points=[[0,0.5],[1,0.5]];portConstraint=eastwest;whiteSpace=wrap;html=1;" vertex="1" parent="zr7w39bFrzsVomgF9hFP-3">
          <mxGeometry y="26" width="140" height="26" as="geometry" />
        </mxCell>
        <mxCell id="zr7w39bFrzsVomgF9hFP-5" value="- date: Date" style="text;strokeColor=none;fillColor=none;align=left;verticalAlign=top;spacingLeft=4;spacingRight=4;overflow=hidden;rotatable=0;points=[[0,0.5],[1,0.5]];portConstraint=eastwest;whiteSpace=wrap;html=1;" vertex="1" parent="zr7w39bFrzsVomgF9hFP-3">
          <mxGeometry y="52" width="140" height="26" as="geometry" />
        </mxCell>
        <mxCell id="zr7w39bFrzsVomgF9hFP-6" value="- details: String" style="text;strokeColor=none;fillColor=none;align=left;verticalAlign=top;spacingLeft=4;spacingRight=4;overflow=hidden;rotatable=0;points=[[0,0.5],[1,0.5]];portConstraint=eastwest;whiteSpace=wrap;html=1;" vertex="1" parent="zr7w39bFrzsVomgF9hFP-3">
          <mxGeometry y="78" width="140" height="26" as="geometry" />
        </mxCell>
        <mxCell id="zr7w39bFrzsVomgF9hFP-9" value="&lt;p style=&quot;margin:0px;margin-top:4px;text-align:center;&quot;&gt;&lt;i&gt;&amp;lt;&amp;lt;Enumeration&amp;gt;&amp;gt;&lt;/i&gt;&lt;br&gt;&lt;b&gt;type&lt;/b&gt;&lt;/p&gt;&lt;hr size=&quot;1&quot; style=&quot;border-style:solid;&quot;&gt;&lt;p style=&quot;margin:0px;margin-left:4px;&quot;&gt;&#39;PanierRecup&#39;&lt;/p&gt;&lt;p style=&quot;margin:0px;margin-left:4px;&quot;&gt;&#39;CommandeEnregistree&#39;&lt;/p&gt;&lt;p style=&quot;margin:0px;margin-left:4px;&quot;&gt;&#39;InventaireMAJ&#39;&lt;/p&gt;&lt;p style=&quot;margin:0px;margin-left:4px;&quot;&gt;&#39;CommandeConfirmee&#39;&lt;/p&gt;&lt;p style=&quot;margin:0px;margin-left:4px;&quot;&gt;&#39;CommandeAnnulee&#39;&lt;/p&gt;" style="verticalAlign=top;align=left;overflow=fill;html=1;whiteSpace=wrap;" vertex="1" parent="1">
          <mxGeometry x="-945" y="-145.26999999999998" width="160" height="126" as="geometry" />
        </mxCell>
        <mxCell id="zr7w39bFrzsVomgF9hFP-10" value="" style="endArrow=open;endFill=1;endSize=12;html=1;rounded=0;exitX=0;exitY=0.5;exitDx=0;exitDy=0;entryX=1;entryY=0.5;entryDx=0;entryDy=0;" edge="1" parent="1" source="zr7w39bFrzsVomgF9hFP-5" target="zr7w39bFrzsVomgF9hFP-9">
          <mxGeometry width="160" relative="1" as="geometry">
            <mxPoint x="-510" y="-320.27" as="sourcePoint" />
            <mxPoint x="-400" y="-366.27" as="targetPoint" />
          </mxGeometry>
        </mxCell>
        <mxCell id="zr7w39bFrzsVomgF9hFP-12" value="&lt;font style=&quot;font-size: 48px;&quot;&gt;Orchestration-Sales&lt;/font&gt;" style="text;html=1;align=center;verticalAlign=middle;resizable=1;points=[];autosize=0;strokeColor=none;fillColor=none;" vertex="1" parent="1">
          <mxGeometry x="-805" y="-251.26999999999998" width="170" height="82" as="geometry" />
        </mxCell>
        <mxCell id="zr7w39bFrzsVomgF9hFP-13" value="" style="endArrow=none;dashed=1;html=1;dashPattern=1 3;strokeWidth=2;rounded=0;strokeColor=default;align=center;verticalAlign=middle;fontFamily=Helvetica;fontSize=12;fontColor=default;labelBackgroundColor=default;startSize=8;endSize=8;curved=1;entryX=0.25;entryY=1;entryDx=0;entryDy=0;exitX=1;exitY=0;exitDx=0;exitDy=0;" edge="1" parent="1" source="zr7w39bFrzsVomgF9hFP-3" target="dIE_9AlhpWobjz6JdOX3-5">
          <mxGeometry width="50" height="50" relative="1" as="geometry">
            <mxPoint x="-270" y="380" as="sourcePoint" />
            <mxPoint x="-220" y="330" as="targetPoint" />
          </mxGeometry>
        </mxCell>
        <mxCell id="zr7w39bFrzsVomgF9hFP-14" value="" style="endArrow=none;dashed=1;html=1;dashPattern=1 3;strokeWidth=2;rounded=0;strokeColor=default;align=center;verticalAlign=middle;fontFamily=Helvetica;fontSize=12;fontColor=default;labelBackgroundColor=default;startSize=8;endSize=8;curved=1;entryX=0;entryY=0.75;entryDx=0;entryDy=0;exitX=1;exitY=0.5;exitDx=0;exitDy=0;" edge="1" parent="1" source="zr7w39bFrzsVomgF9hFP-4" target="dIE_9AlhpWobjz6JdOX3-4">
          <mxGeometry width="50" height="50" relative="1" as="geometry">
            <mxPoint x="-390" y="370" as="sourcePoint" />
            <mxPoint x="-340" y="320" as="targetPoint" />
          </mxGeometry>
        </mxCell>
        <mxCell id="zr7w39bFrzsVomgF9hFP-15" value="" style="endArrow=none;dashed=1;html=1;dashPattern=1 3;strokeWidth=2;rounded=0;strokeColor=default;align=center;verticalAlign=middle;fontFamily=Helvetica;fontSize=12;fontColor=default;labelBackgroundColor=default;startSize=8;endSize=8;curved=1;entryX=0;entryY=0.25;entryDx=0;entryDy=0;exitX=1;exitY=0.5;exitDx=0;exitDy=0;" edge="1" parent="1" source="zr7w39bFrzsVomgF9hFP-5" target="dIE_9AlhpWobjz6JdOX3-3">
          <mxGeometry width="50" height="50" relative="1" as="geometry">
            <mxPoint x="-370" y="-350" as="sourcePoint" />
            <mxPoint x="-320" y="-400" as="targetPoint" />
          </mxGeometry>
        </mxCell>
      </root>
    </mxGraphModel>
  </diagram>
</mxfile>
